<svg xmlns="http://www.w3.org/2000/svg" xmlns:xlink="http://www.w3.org/1999/xlink" viewBox="0,0,256,256" width="96px" height="96px" fill-rule="nonzero"><g fill="#ffffff" fill-rule="nonzero" stroke="none" stroke-width="1" stroke-linecap="butt" stroke-linejoin="miter" stroke-miterlimit="10" stroke-dasharray="" stroke-dashoffset="0" font-family="none" font-weight="none" font-size="none" text-anchor="none" style="mix-blend-mode: normal"><g transform="scale(5.33333,5.33333)"><path d="M13.5,6c-4.1245,0 -7.5,3.3755 -7.5,7.5v21c0,4.1245 3.3755,7.5 7.5,7.5h21c4.1245,0 7.5,-3.3755 7.5,-7.5v-21c0,-4.1245 -3.3755,-7.5 -7.5,-7.5zM21.38672,11.79492c0.48135,0.0335 0.93711,0.29414 1.19336,0.74414l1.41992,2.46094l1.41992,-2.46094c0.41,-0.72 1.33078,-0.95883 2.05078,-0.54883c0.72,0.42 0.95883,1.32883 0.54883,2.04883l-7.48047,12.96094h4.62109l1.7207,3h-14.38086c-0.83,0 -1.5,-0.67 -1.5,-1.5c0,-0.83 0.67,-1.5 1.5,-1.5h4.57031l5.19922,-9l-2.28906,-3.96094c-0.41,-0.72 -0.17117,-1.62883 0.54883,-2.04883c0.27,-0.15375 0.56861,-0.21541 0.85742,-0.19531zM26.89063,20l4.03906,7h4.57031c0.83,0 1.5,0.67 1.5,1.5c0,0.83 -0.67,1.5 -1.5,1.5h-2.83984l1.41992,2.46094c0.41,0.72 0.16922,1.62883 -0.55078,2.04883c-0.24,0.13 -0.49,0.20117 -0.75,0.20117c-0.52,0 -1.01883,-0.27 -1.29883,-0.75l-6.32031,-10.96094zM14.18945,32h3.46094l-1.13086,1.96094c-0.28,0.48 -0.77883,0.75 -1.29883,0.75c-0.26,0 -0.51,-0.07117 -0.75,-0.20117c-0.72,-0.42 -0.96078,-1.32883 -0.55078,-2.04883z"></path></g></g></svg>