<svg xmlns="http://www.w3.org/2000/svg" xmlns:xlink="http://www.w3.org/1999/xlink" viewBox="0,0,256,256" width="144px" height="144px" fill-rule="nonzero"><g fill="#e1ab1a" fill-rule="nonzero" stroke="none" stroke-width="1" stroke-linecap="butt" stroke-linejoin="miter" stroke-miterlimit="10" stroke-dasharray="" stroke-dashoffset="0" font-family="none" font-weight="none" font-size="none" text-anchor="none" style="mix-blend-mode: normal"><g transform="scale(5.33333,5.33333)"><path d="M25.88,24l-18.57,18.57c-0.21,-0.44 -0.31,-0.92 -0.31,-1.42v-34.3c0,-0.5 0.1,-0.98 0.31,-1.42zM28,26.12l6.21,6.21l-22.05,11.9c-0.52,0.28 -1.09,0.42 -1.66,0.42c-0.31,0 -0.61,-0.04 -0.91,-0.12zM28,21.88l-18.4,-18.4c0.85,-0.24 1.76,-0.14 2.56,0.29l22.05,11.9zM45.79,24c0,1.29 -0.71,2.47 -1.84,3.08l-6.98,3.77l-6.85,-6.85l6.85,-6.85l6.98,3.77c1.13,0.61 1.84,1.79 1.84,3.08z"></path></g></g></svg>